<svg xmlns="http://www.w3.org/2000/svg" width="21" height="21" viewBox="5 4 21 21"><path d="m24.786 13.523-2.4-1.738-.702-.496a.248.248 0 0 0-.15-.047.247.247 0 0 0-.108.028.247.247 0 0 0-.133.22.248.248 0 0 0 0 .001v1.56h-4.345V8.708h1.564a.248.248 0 0 0 .22-.133.248.248 0 0 0 .028-.11V8.46a.247.247 0 0 0-.045-.144l-3.005-4.21a.247.247 0 0 0-.405 0l-.782 1.108-1.738 2.4-.496.702a.247.247 0 0 0-.019.258.247.247 0 0 0 .219.133.248.248 0 0 0 .002 0h1.56v4.345H9.708v-1.56a.25.25 0 0 0 0-.003.247.247 0 0 0-.133-.22.247.247 0 0 0-.108-.027h-.005a.247.247 0 0 0-.145.047l-.702.496-2.4 1.738-1.108.782a.247.247 0 0 0 0 .405l4.21 3.005a.247.247 0 0 0 .149.046.248.248 0 0 0 .109-.028.248.248 0 0 0 .133-.22v-1.565h4.345v4.345h-1.56a.248.248 0 0 0-.003 0 .247.247 0 0 0-.219.133.247.247 0 0 0-.028.108.247.247 0 0 0 .047.15l.496.702 1.738 2.4.782 1.108a.246.246 0 0 0 .202.106.247.247 0 0 0 .203-.106l3.005-4.21a.247.247 0 0 0 .046-.143.25.25 0 0 0 0-.006.249.249 0 0 0-.028-.109.248.248 0 0 0-.22-.133h-1.565v-4.345h4.345v1.564a.248.248 0 0 0 .133.22.248.248 0 0 0 .115.029.247.247 0 0 0 .143-.046l4.21-3.005a.247.247 0 0 0 0-.405l-1.108-.782Z" fill="rgba(34, 37, 44, 1)" fill-rule="evenodd" data-name="Forme 2"/></svg>