<svg xmlns="http://www.w3.org/2000/svg" width="893.999" height="893.999" viewBox="-86 -92 893.999 893.999"><path d="M808 802V699.778L362.758 357.131 808 595.336V472.75L363.932 355.845 808 400.54v-98.23l-444.67 51.916L808 226.832V101.957L363.233 352.504 808 10.222V-92h-89.442L361.635 351.775 609.765-92H482.1L360.322 350.624 414.331-92H293.857l64.809 443.214L225.963-92H101.28l255.626 443.308L.358-92H-86V12.596l442.158 340.273L-86 116.314v121.75l440.987 116.091L-86 302.669v104.663l441.584-51.557L-86 482.285v124.02l441.684-248.809L-86 697.405V802H.358L357.28 358.225 109.151 802h127.664l121.779-442.624L304.585 802h124.05L360.25 358.787 492.953 802H623L362.01 358.69 718.557 802H808Z" fill="rgba(62, 75, 104, 1)" fill-rule="evenodd" data-name="Forme 1"/></svg>